<svg width="19" height="19" viewBox="0 0 19 19" fill="none" xmlns="http://www.w3.org/2000/svg">
<path fill-rule="evenodd" clip-rule="evenodd" d="M0 0H6.66667V1.66667H1.66667V6.66667H0V0ZM3.33333 8.33333V7.5V4.16667V3.33333H4.16667H7.5H8.33333V8.33333H3.33333ZM5 6.66667H6.66667V5H5V6.66667ZM10 8.33333V3.33333H10.8333H14.1667H15V8.33333H10ZM11.6667 6.66667H13.3333V5H11.6667V6.66667ZM3.33333 14.1667V15H8.33333V10H3.33333V10.8333V14.1667ZM6.66667 13.3333H5V11.6667H6.66667V13.3333ZM0.833333 18.3333H0V11.6667H1.66667V16.6667H6.66667V18.3333H0.833333ZM18.3333 0V6.66667H16.6667V1.66667H11.6667V0H18.3333ZM18.3333 17.5V18.3333H11.6667V16.6667H16.6667V11.6667H18.3333V17.5ZM10 10V15H15.2083V13.3333H11.6667V10H10ZM13.3333 10V11.6667H15V10H13.3333Z" fill="white"/>
</svg>
